<svg id="Layer_1" data-name="Layer 1" xmlns="http://www.w3.org/2000/svg" viewBox="0 0 1277 720"><defs><style>.cls-1{fill:#fff;}</style></defs><rect class="cls-1" width="1277" height="720"/><path class="cls-1" d="M469,368.43a24,24,0,0,0-17.51-7.2H418.05a.8.8,0,0,0-.9.91v91.22a.8.8,0,0,0,.9.92h4.35a.81.81,0,0,0,.9-.92V411.21h27.57A25.05,25.05,0,0,0,469,403.77a24.62,24.62,0,0,0-.07-35.34Zm-4.16,31.11a18.11,18.11,0,0,1-13.35,5.58H423.3V367.33h28.14a18.87,18.87,0,0,1,13.35,32.21Z"/><path class="cls-1" d="M556,448.11h-43.5v-86c0-.56-.3-.85-.9-.85h-4.35c-.61,0-.92.29-.92.85v91.28a.82.82,0,0,0,.92.92H556c.62,0,.9-.31.9-.92V449C556.91,448.42,556.63,448.11,556,448.11Z"/><path class="cls-1" d="M637.9,361.42h-4.35a.82.82,0,0,0-.92.92v61.47a24.2,24.2,0,0,1-41.94,16.65,24.5,24.5,0,0,1-6.75-17.25V362.34a.81.81,0,0,0-.9-.92h-4.28a.81.81,0,0,0-.91.92v60.81a30.36,30.36,0,0,0,8.56,21.59,29.1,29.1,0,0,0,20.93,9.54,30.47,30.47,0,0,0,31.4-30.47V362.34C638.74,361.73,638.45,361.42,637.9,361.42Z"/><path class="cls-1" d="M718.48,361.36H660.11a.8.8,0,0,0-.9.9v4.35a.8.8,0,0,0,.9.9h26.13v85.85c0,.61.29.92.86.92h4.33a.82.82,0,0,0,.92-.92V367.51h26.13a.8.8,0,0,0,.9-.9v-4.35A.8.8,0,0,0,718.48,361.36Z"/><path class="cls-1" d="M798.93,448.17H746.14v6.11h52.79a.81.81,0,0,0,.9-.92v-4.27A.81.81,0,0,0,798.93,448.17Zm0-86.75H746.14v6.17h52.79a.81.81,0,0,0,.9-.92v-4.33A.81.81,0,0,0,798.93,361.42ZM782.2,410v-4.26a.81.81,0,0,0-.9-.93H746.14v6.12H781.3A.81.81,0,0,0,782.2,410Z"/><path class="cls-1" d="M905.31,389.7A46.19,46.19,0,0,0,880.62,365a46.24,46.24,0,0,0-36.2,0,46.61,46.61,0,0,0-14.77,9.92,47.38,47.38,0,0,0-10,14.79,46.89,46.89,0,0,0,0,36.18,46.94,46.94,0,0,0,24.75,24.77,46.94,46.94,0,0,0,36.2,0,47.62,47.62,0,0,0,14.76-10,46.51,46.51,0,0,0,9.93-14.78,46.19,46.19,0,0,0,0-36.18Zm-5.64,33.78a40.3,40.3,0,1,1,3.18-15.69A39.83,39.83,0,0,1,899.67,423.48Z"/><path class="cls-1" d="M426.47,489.45h-8.05v11.48h-1V476.18h9c5.08,0,7.36,3.23,7.36,6.63S431.52,489.45,426.47,489.45Zm-8.05-12.94v12.61H426c5.28,0,6.8-3.37,6.8-6.31s-1.52-6.3-6.8-6.3Z"/><path class="cls-1" d="M482.63,476.18h12.81v.33H483.62v10.4h10.5v.33h-10.5V500.6h12.15v.33H482.63Z"/><path class="cls-1" d="M554.73,489c1.95.59,3.2,2.34,4.39,5.41l2.51,6.5h-1.09l-2.94-7.42c-1-2.51-2.67-4.39-5.41-4.39h-6.93v11.81h-1V476.18h9c5,0,7.36,3.2,7.36,6.5C560.64,485.65,558.76,488.49,554.73,489Zm-9.47-12.51v12.28h7.59c5.25,0,6.8-3.27,6.8-6.11s-1.55-6.17-6.8-6.17Z"/><path class="cls-1" d="M610.13,476.18h12.8v.33H611.12v10.4h10.49v.33H611.12v13.69h-1Z"/><path class="cls-1" d="M671.76,476.18h1V494c0,4.22,3.3,6.89,7.59,6.89,4.82,0,7.26-3.33,7.26-7V476.18h.33v17.49c0,4.13-2.57,7.59-8,7.59-4.46,0-8.19-2.34-8.19-7.65Z"/><path class="cls-1" d="M737.75,476.18h1l10.07,23.5,10-23.5h.83v24.75h-1V477.4l-10,23.53h-.36l-10.17-23.76v23.76h-.33Z"/><path class="cls-1" d="M809.78,476.18h12.81v.33H810.78v10.4h10.49v.33H810.78V500.6h12.14v.33H809.78Z"/><path class="cls-1" d="M878,475.85a10.16,10.16,0,0,1,7.56,3.43l-.53,1.45c-.69-1.28-3.36-4.55-7.42-4.55-2.84,0-5.55,1.58-5.55,4.55,0,6.84,14.16,7.2,14.16,14.92,0,3.3-2.61,5.61-6.93,5.61a11.33,11.33,0,0,1-8.22-3.33l.53-1.45a10.15,10.15,0,0,0,8,4.45c3,0,5.58-1.61,5.58-4.88,0-7.69-14.16-8.12-14.16-14.92C871.09,477.83,874.39,475.85,878,475.85Z"/><path class="cls-1" d="M685.73,299.74,669,315.53l-16.88-15.85c-15.37,11.8-32.11,18.77-51.63,16.78-17.46-1.78-32.47-11.68-41.37-20.1,19.85-19.73,55-33.44,93.21-4.09l12.44-11.76c-12.35-14.58-19.82-30.62-16.91-50,2-13,11.6-30.14,21.08-37.84,18.91,17.75,35.64,51.53,4.32,88.16l12.48,11.5c37.91-29.49,73-15.51,93.2,3.69C759.77,314.9,724.15,329.46,685.73,299.74ZM669,276c22.2-24.92,19.73-53.28-.17-74.71C648.17,224.75,647.8,252.71,669,276Zm100.75,20.09c-25.48-20.74-55.38-19.09-78.38,0C714.86,315.31,745.45,316.36,769.72,296.05Zm-123.05-.13c-11.49-9.32-29.11-17-46.39-14.43-12,1.76-22.57,6.8-32.08,14.47C591.69,316,622.59,315.72,646.67,295.92ZM669,307.3l11.91-11.25-11.95-11.39-12.05,11.43a9.93,9.93,0,0,0,.74.89Z"/></svg>