<svg id="Layer_1" data-name="Layer 1" xmlns="http://www.w3.org/2000/svg" viewBox="0 0 89.69 121.85"><defs><style>.cls-1{fill:#ea900e;}</style></defs><path class="cls-1" d="M257.62,352h44.29a98.35,98.35,0,0,1,17.14,1.45,41.17,41.17,0,0,1,14.52,5.28,28.45,28.45,0,0,1,10,10.41q3.72,6.57,3.73,16.69,0,17.91-11.3,27.26t-33,9.35l-12.79,19-23.71,32.42h-8.91Zm8.91,61.54h36.83a61.85,61.85,0,0,0,15.91-1.78A28.23,28.23,0,0,0,330,406.53a20,20,0,0,0,6.07-8.52A33.42,33.42,0,0,0,338,386.27q0-8.11-2.84-13.13a20,20,0,0,0-7.68-7.73,31.51,31.51,0,0,0-11.18-3.62,96.67,96.67,0,0,0-13.36-.89H266.53Z" transform="translate(-257.62 -352)"/></svg>