<svg id="Layer_1" data-name="Layer 1" xmlns="http://www.w3.org/2000/svg" viewBox="0 0 282.59 39.9"><defs><style>.cls-1{fill:#a67f8e;}</style></defs><path class="cls-1" d="M159.67,375h14a31.67,31.67,0,0,1,5.41.46,13,13,0,0,1,4.59,1.67,8.91,8.91,0,0,1,3.16,3.29,10.51,10.51,0,0,1,1.18,5.27q0,5.66-3.57,8.61t-10.42,3l-4,6-7.49,10.24h-2.82Zm2.82,19.44h11.63a19.23,19.23,0,0,0,5-.56,8.81,8.81,0,0,0,3.39-1.65,6.3,6.3,0,0,0,1.92-2.69,10.54,10.54,0,0,0,.6-3.71,8.37,8.37,0,0,0-.9-4.15,6.33,6.33,0,0,0-2.43-2.44,9.84,9.84,0,0,0-3.53-1.14,29.9,29.9,0,0,0-4.22-.28H162.49Z" transform="translate(-159.67 -374.32)"/><path class="cls-1" d="M233.31,413.52H210.64V375h2.81v35.69h19.86Z" transform="translate(-159.67 -374.32)"/><path class="cls-1" d="M270,414.22a21,21,0,0,1-5.89-.72,12.38,12.38,0,0,1-4.06-1.95,9.61,9.61,0,0,1-2.57-2.88,14.64,14.64,0,0,1-1.44-3.52,20.3,20.3,0,0,1-.62-3.87q-.12-2-.12-3.9V375h2.81v22.26a26.91,26.91,0,0,0,.79,7.15,10,10,0,0,0,2.32,4.31,8,8,0,0,0,3.73,2.11,20.74,20.74,0,0,0,5.05.56,21.25,21.25,0,0,0,5.11-.56,7.69,7.69,0,0,0,3.73-2.13,10.18,10.18,0,0,0,2.27-4.31,27.17,27.17,0,0,0,.77-7.13V375h2.81v22.36a33.79,33.79,0,0,1-.67,7.1,13,13,0,0,1-2.32,5.29,10.28,10.28,0,0,1-4.5,3.31A19.55,19.55,0,0,1,270,414.22Z" transform="translate(-159.67 -374.32)"/><path class="cls-1" d="M335.66,377.84H322.19v35.68h-2.81V377.84H306.06V375h29.6Z" transform="translate(-159.67 -374.32)"/><path class="cls-1" d="M384.83,413.52H357V375h26.86v2.82H359.83v14.23h22.54v2.82H359.83v15.82h25Z" transform="translate(-159.67 -374.32)"/><path class="cls-1" d="M424.12,374.32a18.56,18.56,0,0,1,7.28,1.41,16.33,16.33,0,0,1,5.74,4,18.7,18.7,0,0,1,3.77,6.26,23.44,23.44,0,0,1,1.35,8.16,23.82,23.82,0,0,1-1.34,8.15,18.73,18.73,0,0,1-3.74,6.35,16.77,16.77,0,0,1-5.73,4.11,19.18,19.18,0,0,1-14.68,0,16.73,16.73,0,0,1-5.75-4.09,18.8,18.8,0,0,1-3.74-6.33,23.93,23.93,0,0,1-1.34-8.19A23.22,23.22,0,0,1,407.3,386a18.12,18.12,0,0,1,3.78-6.24,16.49,16.49,0,0,1,5.74-4A18.52,18.52,0,0,1,424.12,374.32Zm0,37.09a16,16,0,0,0,6.1-1.14,13.28,13.28,0,0,0,4.84-3.36,15.46,15.46,0,0,0,3.16-5.43,22.17,22.17,0,0,0,1.13-7.33,21.21,21.21,0,0,0-1.15-7.31,15.21,15.21,0,0,0-3.16-5.33,13.25,13.25,0,0,0-4.78-3.27,16,16,0,0,0-6-1.11,16.32,16.32,0,0,0-6.14,1.13,13.5,13.5,0,0,0-4.83,3.28,15.19,15.19,0,0,0-3.18,5.33,21.44,21.44,0,0,0-1.14,7.28,22.17,22.17,0,0,0,1.12,7.33,15.59,15.59,0,0,0,3.15,5.43,13.17,13.17,0,0,0,4.81,3.36A16,16,0,0,0,424.08,411.41Z" transform="translate(-159.67 -374.32)"/></svg>