<svg id="Layer_1" data-name="Layer 1" xmlns="http://www.w3.org/2000/svg" viewBox="0 0 492.85 309.8"><defs><style>.cls-1{fill:#fff;stroke:#fff;stroke-miterlimit:10;}</style></defs><path class="cls-1" d="M103.75,442.84a24,24,0,0,0-17.51-7.2H52.85a.8.8,0,0,0-.9.9v91.22c0,.62.29.93.9.93H57.2a.81.81,0,0,0,.9-.93V485.62H85.67a25.05,25.05,0,0,0,18.15-7.44,24.62,24.62,0,0,0-.07-35.34ZM99.59,474a18.15,18.15,0,0,1-13.35,5.58H58.1v-37.8H86.24A18.88,18.88,0,0,1,99.59,474Z" transform="translate(-51.45 -266.37)"/><path class="cls-1" d="M190.81,522.51h-43.5v-86c0-.55-.3-.84-.9-.84h-4.35c-.61,0-.92.29-.92.84v91.28a.82.82,0,0,0,.92.93h48.75c.62,0,.9-.31.9-.93v-4.32C191.71,522.82,191.43,522.51,190.81,522.51Z" transform="translate(-51.45 -266.37)"/><path class="cls-1" d="M272.7,435.83h-4.35a.81.81,0,0,0-.92.92v61.46a24.2,24.2,0,0,1-41.94,16.65,24.49,24.49,0,0,1-6.75-17.24V436.75a.8.8,0,0,0-.9-.92h-4.28a.81.81,0,0,0-.91.92v60.81a30.41,30.41,0,0,0,8.55,21.59,30.33,30.33,0,0,0,52.34-20.94V436.75C273.54,436.13,273.25,435.83,272.7,435.83Z" transform="translate(-51.45 -266.37)"/><path class="cls-1" d="M353.28,435.76H294.91a.81.81,0,0,0-.9.91V441a.8.8,0,0,0,.9.91H321v85.84c0,.62.29.93.86.93h4.33a.82.82,0,0,0,.92-.93V441.92h26.13a.8.8,0,0,0,.9-.91v-4.34A.81.81,0,0,0,353.28,435.76Z" transform="translate(-51.45 -266.37)"/><path class="cls-1" d="M433.73,522.58H380.94v6.11h52.79a.81.81,0,0,0,.9-.93V523.5A.8.8,0,0,0,433.73,522.58Zm0-86.75H380.94V442h52.79a.81.81,0,0,0,.9-.92v-4.33A.8.8,0,0,0,433.73,435.83ZM417,484.39v-4.27a.81.81,0,0,0-.91-.92H380.94v6.11h35.15A.81.81,0,0,0,417,484.39Z" transform="translate(-51.45 -266.37)"/><path class="cls-1" d="M540.11,464.11a46.25,46.25,0,0,0-24.69-24.72,46.24,46.24,0,0,0-36.2,0,46.47,46.47,0,0,0-14.77,9.93,47.38,47.38,0,0,0-10,14.79,46.87,46.87,0,0,0,0,36.17,46.92,46.92,0,0,0,24.75,24.78,46.94,46.94,0,0,0,36.2,0,47.62,47.62,0,0,0,14.76-10,46.55,46.55,0,0,0,9.93-14.79,46.16,46.16,0,0,0,0-36.17Zm-5.64,33.77a40.34,40.34,0,1,1-37.16-56,40.32,40.32,0,0,1,28.55,11.81,40.36,40.36,0,0,1,8.61,44.21Z" transform="translate(-51.45 -266.37)"/><path class="cls-1" d="M61.27,563.86H53.22v11.48h-1V550.59h9c5.08,0,7.36,3.23,7.36,6.63S66.32,563.86,61.27,563.86Zm-8.05-12.94v12.6h7.59c5.28,0,6.8-3.36,6.8-6.3s-1.52-6.3-6.8-6.3Z" transform="translate(-51.45 -266.37)"/><path class="cls-1" d="M117.43,550.59h12.81v.33H118.42v10.39h10.49v.33H118.42V575h12.15v.33H117.43Z" transform="translate(-51.45 -266.37)"/><path class="cls-1" d="M189.53,563.43c1.95.59,3.2,2.34,4.39,5.41l2.51,6.5h-1.09l-2.94-7.43c-1-2.5-2.67-4.39-5.41-4.39h-6.93v11.82h-1V550.59h9c5,0,7.36,3.2,7.36,6.5C195.44,560.06,193.55,562.9,189.53,563.43Zm-9.47-12.51V563.2h7.59c5.25,0,6.8-3.27,6.8-6.11s-1.55-6.17-6.8-6.17Z" transform="translate(-51.45 -266.37)"/><path class="cls-1" d="M244.93,550.59h12.8v.33H245.92v10.39h10.49v.33H245.92v13.7h-1Z" transform="translate(-51.45 -266.37)"/><path class="cls-1" d="M306.56,550.59h1v17.85c0,4.23,3.3,6.9,7.59,6.9,4.82,0,7.26-3.33,7.26-7V550.59h.33v17.49c0,4.13-2.57,7.59-8,7.59-4.46,0-8.19-2.34-8.19-7.66Z" transform="translate(-51.45 -266.37)"/><path class="cls-1" d="M372.55,550.59h1l10.07,23.5,10-23.5h.83v24.75h-1V551.81l-10,23.53h-.36l-10.17-23.76v23.76h-.33Z" transform="translate(-51.45 -266.37)"/><path class="cls-1" d="M444.58,550.59h12.81v.33H445.58v10.39h10.49v.33H445.58V575h12.14v.33H444.58Z" transform="translate(-51.45 -266.37)"/><path class="cls-1" d="M512.82,550.26a10.16,10.16,0,0,1,7.56,3.43l-.53,1.45c-.69-1.29-3.36-4.55-7.42-4.55-2.84,0-5.55,1.58-5.55,4.55,0,6.83,14.16,7.2,14.16,14.92,0,3.3-2.61,5.61-6.93,5.61a11.37,11.37,0,0,1-8.22-3.33l.53-1.46a10.13,10.13,0,0,0,8.05,4.46c3,0,5.58-1.62,5.58-4.88,0-7.69-14.16-8.12-14.16-14.92C505.89,552.24,509.19,550.26,512.82,550.26Z" transform="translate(-51.45 -266.37)"/><path class="cls-1" d="M320.53,374.14l-16.78,15.8-16.88-15.85c-15.37,11.8-32.11,18.76-51.63,16.78-17.46-1.78-32.47-11.68-41.37-20.1,19.85-19.73,55-33.44,93.21-4.09,4.07-3.86,8.19-7.74,12.44-11.76-12.35-14.59-19.82-30.63-16.91-50,2-13,11.6-30.14,21.08-37.84,18.91,17.75,35.64,51.53,4.32,88.15l12.48,11.5c37.91-29.49,73.05-15.5,93.2,3.69C394.57,389.31,359,403.86,320.53,374.14Zm-16.76-23.77c22.2-24.92,19.73-53.28-.17-74.72C283,299.16,282.6,327.12,303.77,350.37Zm100.75,20.08c-25.48-20.74-55.38-19.08-78.38,0C349.65,389.72,380.25,390.77,404.52,370.45Zm-123-.13C270,361,252.36,353.37,235.08,355.9c-12,1.76-22.57,6.8-32.08,14.47C226.49,390.36,257.39,390.13,281.47,370.32Zm22.31,11.39,11.91-11.25-11.95-11.39L291.69,370.5a9.93,9.93,0,0,0,.74.89Z" transform="translate(-51.45 -266.37)"/></svg>